<?xml version="1.0" standalone="no"?>
<!DOCTYPE svg PUBLIC "-//W3C//DTD SVG 20010904//EN"
 "http://www.w3.org/TR/2001/REC-SVG-20010904/DTD/svg10.dtd">
<svg version="1.0" xmlns="http://www.w3.org/2000/svg"
 width="256.000000pt" height="256.000000pt" viewBox="0 0 256.000000 256.000000"
 preserveAspectRatio="xMidYMid meet">
<metadata>
Created by potrace 1.14, written by Peter Selinger 2001-2017
</metadata>
<g transform="translate(0.000000,256.000000) scale(0.100000,-0.100000)"
fill="#000000" stroke="none">
<path d="M1928 2508 c-140 -52 -277 -96 -316 -103 -38 -6 -58 -21 -155 -117
-62 -61 -131 -126 -155 -146 -40 -33 -44 -34 -59 -19 -14 13 -15 21 -5 42 7
15 9 31 6 37 -4 6 1 17 11 24 16 12 16 14 2 20 -9 3 -23 2 -32 -4 -24 -13 -54
-85 -44 -104 4 -8 10 -37 12 -64 3 -27 10 -73 17 -101 7 -34 10 -119 8 -240
-3 -167 -6 -195 -27 -253 -36 -100 -92 -188 -165 -261 -80 -80 -113 -100 -127
-79 -5 8 -7 20 -4 27 2 7 -2 43 -10 80 -8 37 -10 69 -5 71 4 2 6 28 3 57 -5
45 -3 56 11 61 9 3 16 14 17 23 0 10 2 11 6 4 2 -7 9 -13 13 -13 16 0 -22 74
-79 153 -31 43 -54 84 -52 90 8 27 9 93 1 107 -13 24 24 44 52 29 29 -15 -32
58 -102 124 -28 27 -49 51 -46 55 3 3 -1 13 -10 23 -9 10 -11 19 -5 23 5 4 7
22 4 41 -6 34 -5 35 29 35 21 0 47 -9 64 -22 23 -18 26 -19 14 -4 -30 38 -120
87 -178 97 -31 5 -78 13 -104 18 -26 4 -53 4 -63 -1 -26 -15 -132 -18 -142 -5
-20 27 -2 57 35 58 25 1 24 2 -8 11 -19 5 -44 13 -55 18 -14 5 -35 1 -65 -14
-37 -18 -53 -35 -96 -108 l-51 -88 12 -70 c16 -93 14 -124 -7 -128 -12 -2 -19
5 -24 22 -6 27 -18 33 -29 16 -16 -26 9 -61 60 -85 59 -28 232 -168 313 -253
63 -66 102 -132 77 -132 -8 0 -15 -4 -15 -8 0 -13 -48 -32 -64 -26 -13 5 -26
-22 -26 -54 0 -19 50 -62 72 -62 14 0 17 -6 14 -22 -13 -65 -16 -97 -7 -102 5
-3 7 -16 3 -28 -4 -16 -2 -19 8 -13 10 6 12 2 8 -18 -4 -18 -1 -24 9 -20 7 3
13 11 13 19 0 8 5 14 11 14 5 0 7 5 3 12 -4 7 -3 8 4 4 8 -5 0 -28 -24 -73
-31 -58 -35 -75 -34 -132 3 -133 -1 -220 -9 -226 -12 -7 -61 78 -61 104 0 11
-10 26 -22 32 -12 6 -31 20 -42 30 -20 19 -66 26 -66 11 0 -5 -11 -14 -24 -20
-18 -8 -22 -16 -19 -35 4 -20 11 -25 31 -24 19 1 27 -4 30 -17 3 -13 0 -17
-11 -13 -8 3 -24 -3 -36 -14 -17 -16 -19 -24 -10 -41 10 -18 13 -19 26 -5 12
12 22 13 47 5 40 -14 51 -25 78 -78 17 -33 36 -52 73 -72 28 -15 56 -28 63
-28 18 0 36 21 40 45 1 11 8 30 14 42 10 21 13 21 39 8 15 -8 37 -15 48 -15
11 0 23 -4 26 -10 3 -5 14 -10 24 -10 10 0 34 -14 52 -31 42 -37 76 -52 106
-44 22 5 23 3 24 -67 0 -81 30 -160 62 -166 10 -2 32 10 49 27 36 35 48 30 53
-20 5 -52 14 -95 25 -123 5 -15 7 -26 4 -26 -4 0 -1 -7 6 -15 16 -20 30 -19
30 2 0 15 1 15 18 0 10 -10 27 -17 36 -17 17 0 17 2 -2 35 l-21 34 25 -9 c29
-11 29 -10 6 32 -10 18 -22 42 -26 53 -7 18 -5 18 17 -3 28 -26 55 -29 64 -6
6 15 8 15 20 -2 7 -10 13 -28 13 -41 0 -12 9 -45 20 -73 11 -27 17 -50 14 -50
-4 0 -1 -7 6 -15 15 -18 34 -20 24 -2 -4 6 2 4 13 -6 11 -9 22 -17 25 -17 13
0 14 39 2 61 -20 37 -17 41 12 14 15 -14 31 -25 36 -25 7 0 4 9 -21 56 -3 7
-21 34 -40 60 l-34 49 32 -30 c18 -16 59 -69 92 -118 97 -140 91 -137 242
-137 94 0 126 3 121 12 -4 6 0 16 8 22 8 6 36 38 63 71 90 112 143 155 191
155 49 0 75 -46 52 -92 -6 -13 -5 -16 6 -12 9 3 18 14 21 25 4 10 10 19 15 19
4 0 10 18 12 40 2 22 0 40 -5 40 -5 0 -6 7 -3 15 4 11 -3 17 -25 22 -19 4 -26
9 -18 13 8 5 5 10 -10 15 -11 3 -25 4 -30 1 -5 -3 -23 -1 -41 5 -26 9 -34 9
-41 -2 -7 -11 -11 -11 -17 -2 -6 10 -14 9 -32 -4 -13 -9 -33 -18 -44 -18 -10
-1 -28 -14 -38 -28 -11 -15 -23 -25 -28 -22 -4 3 -13 -9 -20 -25 -7 -17 -17
-30 -22 -30 -5 0 -17 -19 -28 -42 -19 -44 -47 -69 -89 -83 -16 -5 -21 -4 -17
4 4 7 -1 11 -13 11 -21 0 -64 38 -69 61 -2 8 -10 18 -18 22 -8 4 -14 19 -14
33 0 13 -7 27 -15 30 -8 4 -15 15 -15 25 0 11 -7 22 -15 25 -8 4 -15 14 -15
24 0 10 -11 27 -25 38 -13 11 -22 21 -20 24 3 3 -9 17 -26 32 -22 20 -28 31
-20 36 8 4 2 11 -18 19 -19 9 -28 18 -24 27 4 10 -5 19 -26 27 -20 7 -29 17
-26 25 3 9 -6 18 -25 25 -18 7 -28 17 -25 25 3 8 -6 15 -25 19 -16 3 -27 10
-24 15 3 5 -4 12 -16 15 -20 5 -22 10 -17 70 4 51 10 68 26 80 12 8 21 21 21
29 0 13 12 18 33 15 12 -2 82 48 83 59 1 6 2 16 3 23 1 14 51 20 51 6 0 -5 5
-9 10 -9 6 0 10 6 10 13 0 6 15 33 33 59 25 35 37 44 45 36 8 -8 14 -5 21 13
5 13 7 27 4 32 -2 4 5 7 16 7 12 0 21 4 21 10 0 5 5 9 12 7 7 -1 16 17 22 41
8 38 12 43 34 40 21 -3 26 3 39 42 8 25 19 49 24 55 5 5 9 22 9 37 0 28 13 37
25 18 3 -5 13 -10 21 -10 8 0 12 5 9 10 -3 6 3 10 14 10 11 0 23 5 26 10 4 6
11 7 17 4 18 -11 72 -13 85 -3 14 12 53 -39 53 -69 0 -12 5 -24 10 -27 17 -11
11 29 -14 90 -19 48 -21 64 -13 91 8 26 7 38 -7 58 -16 25 -16 26 2 26 23 0
46 44 46 90 1 30 5 35 28 38 26 3 26 4 14 40 -18 50 -11 66 18 47 12 -8 25
-13 28 -9 3 3 28 7 54 8 51 3 72 -12 132 -89 13 -16 22 -25 20 -20 -12 31 -34
73 -49 90 -10 11 -23 40 -30 65 -7 25 -13 47 -14 50 -13 44 -14 60 -5 84 5 15
19 30 30 33 11 3 17 9 14 15 -3 5 0 15 6 23 7 8 9 15 4 15 -5 1 2 7 16 14 14
8 29 12 34 9 5 -4 7 -2 3 3 -3 5 1 18 9 29 8 10 14 16 14 12 0 -4 8 -3 18 2
38 20 80 19 130 -4 27 -13 53 -28 56 -34 4 -6 12 -11 17 -11 21 0 -34 55 -83
83 -29 16 -46 32 -40 36 13 8 3 26 -18 34 -12 4 -11 6 3 6 25 1 22 40 -5 69
l-23 25 28 -5 c23 -5 27 -2 22 11 -7 19 -8 21 -6 42 0 9 9 19 19 22 11 2 22
17 25 36 4 18 13 31 22 31 8 0 15 6 15 14 0 13 6 14 45 6 21 -5 55 0 55 8 0 9
-102 45 -135 48 -11 1 -87 5 -170 8 -82 4 -163 9 -180 12 -77 11 -97 10 -147
-8z m-1369 -1313 c-27 -40 -40 -45 -34 -14 7 37 35 73 48 60 7 -7 3 -21 -14
-46z"/>
</g>
</svg>
